<?xml version="1.0" encoding="UTF-8"?>
<svg width="32px" height="32px" viewBox="0 0 32 32" version="1.1" xmlns="http://www.w3.org/2000/svg" xmlns:xlink="http://www.w3.org/1999/xlink">
    <title>01 通用/01 图标/32px/audio_off</title>
    <g id="V1.3" stroke="none" stroke-width="1" fill="none" fill-rule="evenodd">
        <g id="音视频小组件样式" transform="translate(-960.000000, -518.000000)" fill="#FF4D5B">
            <g id="音频播放备份-4" transform="translate(538.000000, 498.000000)">
                <g id="编组" transform="translate(422.000000, 20.000000)">
                    <path d="M18.9948186,3.78469424 C19.2795648,4.10503371 19.4527847,4.50706143 19.4916405,4.93070976 L19.5,5.11342192 L19.5,26.8865781 C19.5,27.9911476 18.6045695,28.8865781 17.5,28.8865781 C17.0714002,28.8865781 16.65584,28.7489515 16.3133869,28.4965361 L16.1712723,28.3813967 L8.57178327,21.6262953 C8.5031391,21.5652783 8.41949097,21.5247457 8.33029558,21.508293 L8.23960136,21.5 L6,21.5 C4.1314366,21.5 2.60487355,20.0357224 2.50517886,18.1920352 L2.5,18 L2.5,14 C2.5,12.1314366 3.9642776,10.6048736 5.8079648,10.5051789 L6,10.5 L8.23960136,10.5 C8.33144417,10.5 8.42089196,10.4747217 8.49848803,10.4277604 L8.57178327,10.3737047 L16.1712723,3.61860328 C16.9968379,2.88476725 18.2609826,2.95912871 18.9948186,3.78469424 Z M16.5,7.339 L10.5648748,12.6159326 C9.98243939,13.133653 9.24569325,13.4406978 8.47252621,13.4922454 L8.23960136,13.5 L6,13.5 C5.75454011,13.5 5.55039163,13.6768752 5.50805567,13.9101244 L5.5,14 L5.5,18 C5.5,18.2454599 5.67687516,18.4496084 5.91012437,18.4919443 L6,18.5 L8.23960136,18.5 C9.01887369,18.5 9.77351409,18.7599793 10.3856327,19.2351164 L10.5648748,19.3840674 L16.5,24.66 L16.5,7.339 Z M29.7175144,11.9393398 C30.2666892,12.4885146 30.3010126,13.357577 29.8204847,13.9467378 L29.7175144,14.0606602 L27.95,15.8284005 L29.7175144,17.5961941 C30.3033009,18.1819805 30.3033009,19.131728 29.7175144,19.7175144 C29.1683396,20.2666892 28.2992772,20.3010126 27.7101165,19.8204847 L27.5961941,19.7175144 L25.828,17.9494005 L24.0606602,19.7175144 C23.4748737,20.3033009 22.5251263,20.3033009 21.9393398,19.7175144 C21.390165,19.1683396 21.3558416,18.2992772 21.8363696,17.7101165 L21.9393398,17.5961941 L23.707,15.8284005 L21.9393398,14.0606602 C21.3535534,13.4748737 21.3535534,12.5251263 21.9393398,11.9393398 C22.4885146,11.390165 23.357577,11.3558416 23.9467378,11.8363696 L24.0606602,11.9393398 L25.828,13.7064005 L27.5961941,11.9393398 C28.1819805,11.3535534 29.131728,11.3535534 29.7175144,11.9393398 Z" id="形状"></path>
                </g>
            </g>
        </g>
    </g>
</svg>