<?xml version="1.0" encoding="UTF-8"?>
<svg width="32px" height="32px" viewBox="0 0 32 32" version="1.1" xmlns="http://www.w3.org/2000/svg" xmlns:xlink="http://www.w3.org/1999/xlink">
    <title>01 通用/01 图标/32px/audio_on</title>
    <g id="V1.3" stroke="none" stroke-width="1" fill="none" fill-rule="evenodd">
        <g id="音视频小组件样式" transform="translate(-159.000000, -488.000000)" fill="#FBFCFE">
            <g id="编组" transform="translate(159.000000, 488.000000)">
                <path d="M18.9948186,3.78469424 C19.2795648,4.10503371 19.4527847,4.50706143 19.4916405,4.93070976 L19.5,5.11342192 L19.5,26.8865781 C19.5,27.9911476 18.6045695,28.8865781 17.5,28.8865781 C17.0714002,28.8865781 16.65584,28.7489515 16.3133869,28.4965361 L16.1712723,28.3813967 L8.57178327,21.6262953 C8.5031391,21.5652783 8.41949097,21.5247457 8.33029558,21.508293 L8.23960136,21.5 L6,21.5 C4.1314366,21.5 2.60487355,20.0357224 2.50517886,18.1920352 L2.5,18 L2.5,14 C2.5,12.1314366 3.9642776,10.6048736 5.8079648,10.5051789 L6,10.5 L8.23960136,10.5 C8.33144417,10.5 8.42089196,10.4747217 8.49848803,10.4277604 L8.57178327,10.3737047 L16.1712723,3.61860328 C16.9968379,2.88476725 18.2609826,2.95912871 18.9948186,3.78469424 Z M21.7009619,21 C22.1151755,20.2825611 23.0325611,20.0367483 23.75,20.4509619 L23.75,20.4509619 L26.7810889,22.2009619 L26.9027617,22.2791385 C27.5251632,22.7224113 27.7199751,23.5747634 27.330127,24.25 C26.9159135,24.9674389 25.9985278,25.2132517 25.2810889,24.7990381 L25.2810889,24.7990381 L22.25,23.0490381 L22.1283273,22.9708615 C21.5059257,22.5275887 21.3111138,21.6752366 21.7009619,21 Z M16.5,7.339 L16.5,24.66 L10.5648748,19.3840674 L10.3856327,19.2351164 C9.77351409,18.7599793 9.01887369,18.5 8.23960136,18.5 L8.23960136,18.5 L6,18.5 L5.91012437,18.4919443 C5.67687516,18.4496084 5.5,18.2454599 5.5,18 L5.5,18 L5.5,14 L5.50805567,13.9101244 C5.55039163,13.6768752 5.75454011,13.5 6,13.5 L6,13.5 L8.23960136,13.5 L8.47252621,13.4922454 C9.24569325,13.4406978 9.98243939,13.133653 10.5648748,12.6159326 L10.5648748,12.6159326 L16.5,7.339 Z M27.2320508,14.75 C28.0604779,14.75 28.7320508,15.4215729 28.7320508,16.25 C28.7320508,17.0296961 28.1371627,17.6704487 27.3765108,17.7431334 L27.2320508,17.75 L23.7320508,17.75 C22.9036237,17.75 22.2320508,17.0784271 22.2320508,16.25 C22.2320508,15.4703039 22.8269389,14.8295513 23.5875908,14.7568666 L23.7320508,14.75 L27.2320508,14.75 Z M27.330127,8.25 C27.7199751,8.92523664 27.5251632,9.77758868 26.9027617,10.2208615 L26.7810889,10.2990381 L23.75,12.0490381 C23.0325611,12.4632517 22.1151755,12.2174389 21.7009619,11.5 C21.3111138,10.8247634 21.5059257,9.97241132 22.1283273,9.52913853 L22.25,9.45096189 L25.2810889,7.70096189 C25.9985278,7.28674833 26.9159135,7.53256106 27.330127,8.25 Z" id="形状"></path>
            </g>
        </g>
    </g>
</svg>