<?xml version="1.0" encoding="UTF-8"?>
<svg width="32px" height="32px" viewBox="0 0 32 32" version="1.1" xmlns="http://www.w3.org/2000/svg" xmlns:xlink="http://www.w3.org/1999/xlink">
    <title>01 通用/01 图标/32px/close</title>
    <g id="V1.3" stroke="none" stroke-width="1" fill="none" fill-rule="evenodd">
        <g id="音视频小组件样式" transform="translate(-1008.000000, -346.000000)" fill="#FBFCFE">
            <g id="音频播放备份-6" transform="translate(538.000000, 326.000000)">
                <g id="编组" transform="translate(470.000000, 20.000000)">
                    <path d="M7.63603897,8.13603897 C8.22182541,7.55025253 9.17157288,7.55025253 9.75735931,8.13603897 L16,14.3786797 L22.2426407,8.13603897 C22.8284271,7.55025253 23.7781746,7.55025253 24.363961,8.13603897 C24.9497475,8.72182541 24.9497475,9.67157288 24.363961,10.2573593 L18.1206132,16.5007071 L24.363961,22.7426407 C24.9497475,23.3284271 24.9497475,24.2781746 24.363961,24.863961 C23.7781746,25.4497475 22.8284271,25.4497475 22.2426407,24.863961 L15.9992929,18.6220275 L9.75735931,24.863961 C9.17157288,25.4497475 8.22182541,25.4497475 7.63603897,24.863961 C7.05025253,24.2781746 7.05025253,23.3284271 7.63603897,22.7426407 L13.8786797,16.5 L7.63603897,10.2573593 C7.05025253,9.67157288 7.05025253,8.72182541 7.63603897,8.13603897 Z" id="路径"></path>
                </g>
            </g>
        </g>
    </g>
</svg>