<?xml version="1.0" encoding="UTF-8"?>
<svg width="40px" height="40px" viewBox="0 0 40 40" version="1.1" xmlns="http://www.w3.org/2000/svg" xmlns:xlink="http://www.w3.org/1999/xlink">
    <title>01 通用/01 图标/32px/loading</title>
    <defs>
        <linearGradient x1="50%" y1="0%" x2="50%" y2="100%" id="linearGradient-1">
            <stop stop-color="#FFFFFF" stop-opacity="0" offset="0%"></stop>
            <stop stop-color="#FFFFFF" offset="100%"></stop>
        </linearGradient>
    </defs>
    <g id="V1.3" stroke="none" stroke-width="1" fill="none" fill-rule="evenodd">
        <g id="音视频小组件样式" transform="translate(-700.000000, -866.000000)" fill="url(#linearGradient-1)">
            <g id="01-通用/01-图标/32px/play备份-6" transform="translate(700.000000, 866.000000)">
                <g id="01-通用/01-图标/32px/play备份-3" transform="translate(3.000000, 3.000000)">
                    <path d="M17,33.25 C8.02537282,33.25 0.75,25.9746272 0.75,17 C0.75,8.22156954 7.71075209,1.06890984 16.4139044,0.760372771 C16.4139044,0.760372771 16.4139044,0.760372771 16.4139044,0.760372771 C16.7263215,0.749297213 16.9885642,0.993582844 16.9996398,1.306 C16.9998767,1.31268207 16.9999951,1.31936781 17,1.32605407 L17,3.94783484 C17.0000062,4.25007775 16.7618044,4.49862232 16.4598343,4.5114611 C16.4598343,4.5114611 16.4598343,4.5114611 16.4598343,4.5114611 C9.80686131,4.79432375 4.5,10.2774199 4.5,17 C4.5,23.9035594 10.0964406,29.5 17,29.5 C23.7127887,29.5 29.1897015,24.2085862 29.4872699,17.569227 C29.4872699,17.569227 29.4872699,17.569227 29.4872699,17.569227 C29.5015408,17.2508132 29.763843,17.0000038 30.0825765,17 L32.5971146,17 C32.9505841,17.0000125 33.2371277,17.2865561 33.2371277,17.6400256 C33.2371277,17.6486185 33.2369546,17.6572106 33.2366086,17.6657966 C33.2366086,17.6657966 33.2366086,17.6657966 33.2366086,17.6657966 C32.8873802,26.3317054 25.7516172,33.25 17,33.25 Z" id="路径"></path>
                </g>
            </g>
        </g>
    </g>
</svg>