<?xml version="1.0" encoding="UTF-8"?>
<svg width="40px" height="40px" viewBox="0 0 40 40" version="1.1" xmlns="http://www.w3.org/2000/svg" xmlns:xlink="http://www.w3.org/1999/xlink">
    <title>01 通用/01 图标/32px/pause</title>
    <g id="V1.3" stroke="none" stroke-width="1" fill="none" fill-rule="evenodd">
        <g id="音视频小组件样式" transform="translate(-837.000000, -866.000000)" fill="#FBFCFE">
            <g id="01-通用/01-图标/32px/play" transform="translate(837.000000, 866.000000)">
                <path d="M25,6.25 C26.3807119,6.25 27.5,7.36928813 27.5,8.75 L27.5,31.25 C27.5,32.6307119 26.3807119,33.75 25,33.75 C23.6192881,33.75 22.5,32.6307119 22.5,31.25 L22.5,8.75 C22.5,7.36928813 23.6192881,6.25 25,6.25 Z M15,6.25 C16.3807119,6.25 17.5,7.36928813 17.5,8.75 L17.5,31.25 C17.5,32.6307119 16.3807119,33.75 15,33.75 C13.6192881,33.75 12.5,32.6307119 12.5,31.25 L12.5,8.75 C12.5,7.36928813 13.6192881,6.25 15,6.25 Z" id="形状"></path>
            </g>
        </g>
    </g>
</svg>